<svg width="221" height="41" viewBox="0 0 221 41" fill="none" xmlns="http://www.w3.org/2000/svg">
<g filter="url(#filter0_d_166_1603)">
<path d="M27.0545 19.7265C28.8763 24.6621 34.3668 27.1885 39.3038 25.371C44.2379 23.5408 46.77 18.0559 44.9412 13.1189C43.1181 8.17631 37.636 5.65416 32.692 7.47587C27.7522 9.30465 25.23 14.7867 27.0545 19.7265Z" fill="white"/>
<path d="M14.8612 25.9216C20.1273 25.9216 24.3963 21.6527 24.3963 16.3866C24.3963 11.1205 20.1273 6.85156 14.8612 6.85156C9.59515 6.85156 5.32617 11.1205 5.32617 16.3866C5.32617 21.6527 9.59515 25.9216 14.8612 25.9216Z" fill="white"/>
<path d="M16.4877 16.2851C16.4877 17.2567 15.6983 18.0531 14.7267 18.0531C13.7509 18.0531 12.9629 17.2581 12.9629 16.2851C12.9629 15.3149 13.7509 14.5283 14.7267 14.5283C15.6983 14.5297 16.4877 15.3149 16.4877 16.2851Z" fill="#191825" fill-opacity="0.5"/>
<path d="M37.7368 16.2851C37.7368 17.2567 36.9502 18.0531 35.9787 18.0531C35 18.0531 34.2148 17.2581 34.2148 16.2851C34.2148 15.3149 35 14.5283 35.9787 14.5283C36.9516 14.5297 37.7368 15.3149 37.7368 16.2851Z" fill="#191825" fill-opacity="0.5"/>
<path d="M9.48828 16.2849C9.48828 19.1756 11.8396 21.5226 14.7303 21.5226C17.614 21.5226 19.9638 19.1756 19.9638 16.2849C19.9638 13.4012 17.6126 11.0527 14.7303 11.0527C11.841 11.0556 9.48828 13.4026 9.48828 16.2849ZM11.2945 16.2849C11.2945 14.394 12.8394 12.8561 14.7331 12.8561C16.624 12.8561 18.1605 14.3982 18.1605 16.2849C18.1605 18.1814 16.624 19.7221 14.7331 19.7221C12.8394 19.7235 11.2945 18.1842 11.2945 16.2849Z" fill="#191825" fill-opacity="0.5"/>
<path d="M30.7383 16.2849C30.7383 19.1756 33.0867 21.5226 35.9761 21.5226C38.8611 21.5226 41.2082 19.1756 41.2082 16.2849C41.2082 13.4012 38.8611 11.0527 35.9761 11.0527C33.0882 11.0556 30.7383 13.4026 30.7383 16.2849ZM32.5445 16.2849C32.5445 14.394 34.0851 12.8561 35.9803 12.8561C37.8712 12.8561 39.4062 14.3982 39.4062 16.2849C39.4062 18.1814 37.8712 19.7221 35.9803 19.7221C34.0823 19.7235 32.5445 18.1842 32.5445 16.2849Z" fill="#191825" fill-opacity="0.5"/>
<path d="M32.3254 6.47166C33.4297 6.06496 34.5595 5.86725 35.6751 5.83618C32.6361 4.47625 29.196 3.78711 25.3845 3.78711C21.6027 3.78711 18.1118 4.49179 15.0742 5.79099C20.5718 5.89973 25.0414 10.2055 25.4269 15.6325C25.5201 14.3869 25.8251 13.1555 26.3632 11.9891C27.548 9.409 29.6677 7.45172 32.3254 6.47166Z" fill="white"/>
<path d="M44.5236 10.1225C45.0207 7.99434 46.5981 5.86477 46.5981 5.86477L39.5189 5.86054C35.5492 3.29743 30.728 1.9375 25.3872 1.9375C19.843 1.9375 14.8368 3.32991 10.8897 5.91137L4.25391 5.91702C4.25391 5.91702 5.81295 8.02258 6.3171 10.1352C5.02637 11.8905 4.25955 14.0469 4.25955 16.3883C4.25955 22.2334 9.01719 26.9882 14.865 26.9882C18.2077 26.9882 21.1888 25.4305 23.1333 23.0101L25.3914 26.3908L27.6664 22.9804C28.6903 24.2824 30.0107 25.3387 31.5584 26.0547C34.1328 27.2381 37.0179 27.3553 39.6742 26.3739C45.1605 24.3446 47.9778 18.2284 45.9485 12.7492C45.5927 11.7846 45.1069 10.9077 44.5236 10.1225ZM25.3858 3.78887C29.1972 3.78887 32.6373 4.47801 35.6763 5.83935C34.5593 5.86901 33.431 6.06813 32.3266 6.47201C29.6689 7.45206 27.5492 9.40935 26.3672 11.9852C25.8292 13.1516 25.5256 14.383 25.431 15.6286C25.0426 10.2044 20.5731 5.89866 15.0754 5.7871C18.1116 4.49213 21.6011 3.78887 25.3858 3.78887ZM21.8723 21.1248C20.3499 23.3702 17.7741 24.8501 14.8622 24.8501C10.1935 24.8501 6.39477 21.0485 6.39477 16.3898C6.39477 11.7183 10.1949 7.92373 14.8622 7.92373C19.5295 7.92373 23.3282 11.7183 23.3282 16.3898C23.3282 16.675 23.2731 16.9433 23.2435 17.2187C23.1023 18.6492 22.6419 19.9894 21.8723 21.1248ZM38.9328 24.3672C36.8117 25.1467 34.5113 25.0605 32.4566 24.113C30.9992 23.4379 29.8059 22.3802 28.9459 21.0669C28.5957 20.5359 28.2878 19.9725 28.0604 19.3553C27.802 18.6577 27.6735 17.9389 27.6043 17.2145C27.4631 15.7458 27.6763 14.2602 28.309 12.8833C29.258 10.8286 30.9469 9.2653 33.068 8.48013C37.4486 6.8646 42.3249 9.11138 43.9432 13.4905C45.5602 17.8697 43.312 22.746 38.9328 24.3672Z" fill="#191825" fill-opacity="0.5"/>
<path d="M59.1065 3.48674L56.0026 4.55859C56.0026 4.55859 56.0026 8.27545 56.0026 8.60872C55.6778 8.60872 52.5625 8.60872 52.5625 8.60872V11.3243C52.5625 11.3243 55.5817 11.3243 55.9094 11.3243C55.9094 11.6774 55.9094 20.0431 55.9094 20.0431C55.9094 24.1865 57.3201 25.8867 60.7899 25.8867C61.6696 25.8867 62.5099 25.778 63.353 25.5478L63.4899 25.5139L63.4518 22.698L63.2146 22.7884C62.5325 23.0243 61.9987 23.1401 61.5863 23.1401C59.9567 23.1401 59.3523 22.2235 59.3523 19.7494C59.3523 19.7494 59.3523 11.676 59.3523 11.3286C59.6827 11.3286 63.3219 11.3286 63.3219 11.3286V8.60872C63.3219 8.60872 59.6841 8.60872 59.3523 8.60872C59.3523 8.27262 59.3523 3.40625 59.3523 3.40625L59.1065 3.48674Z" fill="#191825" fill-opacity="0.5"/>
<path d="M69.8386 11.3596C69.8386 10.4035 69.8386 8.60862 69.8386 8.60862H66.6895V25.5873H70.1323V17.0648C70.1323 13.4919 71.6335 11.5234 74.3534 11.5234C74.7473 11.5234 75.1301 11.5827 75.5961 11.714L75.8192 11.7776L75.9322 8.42645L74.4508 8.31348C72.4554 8.31207 70.8441 9.38956 69.8386 11.3596Z" fill="#191825" fill-opacity="0.5"/>
<path d="M82.0692 8.6072H78.8098V25.5872H82.2527V8.6072H82.0692ZM78.4766 3.63209C78.4766 4.76183 79.3973 5.67834 80.5242 5.67834C81.654 5.67834 82.5719 4.76183 82.5719 3.63209C82.5719 2.50376 81.654 1.58301 80.5242 1.58301C79.3973 1.58019 78.4766 2.50376 78.4766 3.63209Z" fill="#191825" fill-opacity="0.5"/>
<path d="M94.4117 8.20898C92.0492 8.20898 90.0622 9.32743 88.7376 11.3624C88.7376 10.549 88.7376 8.60439 88.7376 8.60439H85.5898V32.4999H89.0356C89.0356 32.4999 89.0356 24.1553 89.0356 23.2374C90.2783 24.9278 92.0605 25.857 94.279 25.857C98.6313 25.857 101.443 22.2856 101.443 16.771C101.443 11.6505 98.6158 8.20898 94.4117 8.20898ZM93.45 23.0722C90.7259 23.0722 89.0342 20.7435 89.0342 17.0026C89.0342 13.3917 90.8191 11.0588 93.5814 11.0588C96.2433 11.0588 97.8349 13.2702 97.8349 16.9673C97.8363 20.7308 96.1544 23.0722 93.45 23.0722Z" fill="#191825" fill-opacity="0.5"/>
<path d="M111.505 8.20898C109.399 8.20898 107.555 8.60722 105.863 9.42063L105.759 9.47147L105.795 12.4102L106.066 12.2577C107.683 11.3539 109.214 10.8921 110.608 10.8921C113.102 10.8921 114.534 12.3213 114.534 14.8194C114.534 14.8194 114.534 14.8914 114.534 14.9649C114.23 14.9649 112.564 14.9649 112.564 14.9649C106.895 14.9649 103.777 17.0182 103.777 20.7407C103.777 23.7303 106.028 25.8203 109.251 25.8203C111.622 25.8203 113.456 24.8882 114.764 23.1343C114.764 23.8164 114.764 25.5859 114.764 25.5859H117.875V15.3108C117.874 10.6012 115.731 8.20898 111.505 8.20898ZM114.528 18.419C114.528 21.3437 112.769 23.236 110.046 23.236C108.378 23.236 107.215 22.1401 107.215 20.5726C107.215 18.5122 109.185 17.3811 112.76 17.3811C112.76 17.3811 114.233 17.3811 114.531 17.3811C114.528 17.6452 114.528 18.419 114.528 18.419Z" fill="#191825" fill-opacity="0.5"/>
<path d="M132.497 0.5C132.497 0.5 132.497 9.96584 132.497 10.912C131.227 9.14678 129.46 8.21192 127.191 8.21192C122.978 8.21192 120.148 11.6802 120.148 16.8347C120.148 22.1445 123.019 25.8529 127.122 25.8529C129.552 25.8529 131.447 24.7768 132.761 22.6853C132.761 23.5312 132.761 25.5888 132.761 25.5888H135.944V0.5H132.497ZM128.014 23.0031C125.39 23.0031 123.761 20.7154 123.761 17.0324C123.761 13.3452 125.405 10.9614 127.952 10.9614C130.796 10.9614 132.494 13.2294 132.494 17.0324C132.497 20.6659 130.743 23.0031 128.014 23.0031Z" fill="#191825" fill-opacity="0.5"/>
<path d="M151.329 8.60742L146.447 18.4122L141.934 8.60742H138.055L146.375 25.5875L154.922 8.60742H151.329Z" fill="#191825" fill-opacity="0.5"/>
<path d="M159.934 8.6072H156.673V25.5872H160.12V8.6072H159.934ZM156.344 3.63209C156.344 4.76183 157.263 5.67834 158.391 5.67834C159.525 5.67834 160.439 4.76183 160.439 3.63209C160.439 2.50376 159.523 1.58301 158.391 1.58301C157.264 1.58019 156.344 2.50376 156.344 3.63209Z" fill="#191825" fill-opacity="0.5"/>
<path d="M164.155 12.9613C164.155 15.3493 165.796 16.6075 168.827 18.0903C170.738 19.0294 171.736 19.583 171.736 20.9062C171.736 22.2633 170.51 23.1403 168.607 23.1403C167.261 23.1403 165.767 22.7618 164.287 22.0346L164.035 21.9103L163.924 24.9041L164.038 24.9465C165.453 25.5099 166.94 25.7853 168.477 25.7853C172.688 25.7853 175.406 23.7786 175.406 20.6732C175.406 18.0847 173.685 16.7699 170.701 15.3775C168.516 14.3509 167.6 13.7535 167.6 12.6647C167.6 11.6338 168.619 10.9616 170.195 10.9616C171.619 10.9616 173.008 11.278 174.323 11.905L174.572 12.0194L174.721 9.09051L174.584 9.05097C173.158 8.62731 171.75 8.41408 170.394 8.41408C166.663 8.40843 164.155 10.2386 164.155 12.9613Z" fill="#191825" fill-opacity="0.5"/>
<path d="M186.151 8.20898C180.976 8.20898 177.764 11.6166 177.764 17.0958C177.764 22.5779 180.979 25.9799 186.151 25.9799C191.349 25.9799 194.576 22.5765 194.576 17.0958C194.576 11.618 191.346 8.20898 186.151 8.20898ZM186.18 23.171C183.321 23.171 181.4 20.7167 181.4 17.0634C181.4 13.3903 183.321 10.9274 186.18 10.9274C189.087 10.9274 190.963 13.338 190.963 17.0634C190.963 20.7746 189.089 23.171 186.18 23.171Z" fill="#191825" fill-opacity="0.5"/>
<path d="M200.926 11.3596C200.926 10.4035 200.926 8.60862 200.926 8.60862H197.777V25.5873H201.22V17.0648C201.22 13.4919 202.713 11.5234 205.437 11.5234C205.828 11.5234 206.208 11.5827 206.666 11.714L206.899 11.7776L207.006 8.42645L205.53 8.31348C203.543 8.31207 201.935 9.38956 200.926 11.3596Z" fill="#191825" fill-opacity="0.5"/>
<path d="M215.219 7.85641C215.783 8.42834 216.08 9.18809 216.08 10.0057C216.08 10.8601 215.761 11.6255 215.173 12.189C214.56 12.7708 213.801 13.0829 213.007 13.0829C212.178 13.0829 211.415 12.7567 210.822 12.1438C210.256 11.5563 209.936 10.805 209.936 10.0029C209.936 9.18527 210.262 8.39304 210.872 7.79145C211.444 7.23081 212.18 6.92578 213.007 6.92578C213.856 6.92719 214.628 7.24917 215.219 7.85641ZM211.253 8.19392C210.756 8.69101 210.491 9.33072 210.491 10.0057C210.491 10.6638 210.736 11.2696 211.211 11.7526C211.687 12.2497 212.318 12.518 212.994 12.518C213.652 12.518 214.285 12.2652 214.774 11.7907C215.254 11.329 215.518 10.6963 215.518 10.0043C215.518 9.3279 215.272 8.7136 214.806 8.24334C214.318 7.74626 213.698 7.485 213.007 7.485C212.326 7.485 211.729 7.7279 211.253 8.19392ZM213.064 8.25182C214.027 8.25182 214.521 8.60063 214.521 9.23187C214.521 9.66682 214.262 10.0043 213.804 10.1427L214.56 11.6241H213.535L212.904 10.2868H212.637V11.6241H211.708V8.25041L213.064 8.25182ZM212.63 9.73743H212.953C213.367 9.73743 213.566 9.59198 213.566 9.30248C213.566 8.97203 213.357 8.83646 212.904 8.83646H212.63V9.73743Z" fill="#191825" fill-opacity="0.5"/>
</g>
<defs>
<filter id="filter0_d_166_1603" x="0.253906" y="0.5" width="219.826" height="40" filterUnits="userSpaceOnUse" color-interpolation-filters="sRGB">
<feFlood flood-opacity="0" result="BackgroundImageFix"/>
<feColorMatrix in="SourceAlpha" type="matrix" values="0 0 0 0 0 0 0 0 0 0 0 0 0 0 0 0 0 0 127 0" result="hardAlpha"/>
<feOffset dy="4"/>
<feGaussianBlur stdDeviation="2"/>
<feComposite in2="hardAlpha" operator="out"/>
<feColorMatrix type="matrix" values="0 0 0 0 0 0 0 0 0 0 0 0 0 0 0 0 0 0 0.25 0"/>
<feBlend mode="normal" in2="BackgroundImageFix" result="effect1_dropShadow_166_1603"/>
<feBlend mode="normal" in="SourceGraphic" in2="effect1_dropShadow_166_1603" result="shape"/>
</filter>
</defs>
</svg>
