<svg width="175" height="33" viewBox="0 0 175 33" fill="none" xmlns="http://www.w3.org/2000/svg">
<path d="M100.291 31.641L113.595 1.53261C113.805 1.07573 113.559 0.68281 113.047 0.68281H103.727C103.454 0.698309 103.19 0.785992 102.962 0.9369C102.734 1.08781 102.55 1.29653 102.429 1.54174L89.2892 31.641C89.0974 32.107 89.3441 32.4908 89.8466 32.4908H98.9934C99.5051 32.4908 100.09 32.107 100.291 31.641ZM147.998 23.536L168.649 0.691948H144.499L139.034 9.49146H148.51L127.521 32.4999H153.079L162.6 23.536H147.998ZM59.6195 0.68281H43.6287C43.1546 0.710282 42.6962 0.862492 42.2999 1.12404C41.9035 1.38558 41.5833 1.74718 41.3717 2.17224L28.7892 31.0105C28.4237 31.8329 28.8714 32.4999 29.7669 32.4999H37.6892C38.5847 32.4999 39.6081 31.8329 39.9553 31.0197L43.5464 22.8415H47.2654C48.4259 22.7684 48.9193 23.1979 48.2797 24.5411L45.5201 31.0105C45.1729 31.8329 45.6115 32.4999 46.507 32.4999H54.4293C54.9052 32.475 55.3659 32.3239 55.7641 32.0621C56.1623 31.8004 56.4837 31.4375 56.6954 31.0105L60.2956 22.6862C61.4287 19.9814 59.7931 17.8889 57.4173 17.7793C59.5189 17.0208 61.4561 14.9283 62.3242 13.0277L64.1883 8.64166C66.4361 3.54288 64.837 0.618847 59.6195 0.691948M54.9593 9.78386L52.9855 14.1242C52.5287 15.1659 51.8708 15.2481 51.2129 15.2207H46.7628L49.7417 8.45891H54.009C55.0507 8.52287 55.3156 8.89752 54.9593 9.78386ZM90.7421 0.673672H73.801C73.4617 0.691354 73.1332 0.7988 72.8491 0.985029C72.5649 1.17126 72.3353 1.42959 72.1837 1.73363L59.2174 31.4308C58.9707 32.0156 59.2722 32.4817 59.9119 32.4817H78.05C83.7976 32.3994 87.0962 31.1293 89.7187 25.0437L91.5828 20.9866C93.0448 17.5143 91.6102 16.0066 88.8689 15.568C91.1533 14.8644 92.8712 12.717 93.6113 10.8255L95.1282 7.60911C96.9922 3.31444 95.4389 0.618847 90.733 0.673672M82.4269 20.5936L81.2756 22.9055C80.6999 24.5137 79.6948 24.9523 78.2784 24.9706H72.9786L75.5189 18.9854H80.8187C82.3173 19.0951 82.9021 19.4606 82.4269 20.5936ZM85.4697 9.9392L84.6748 11.7667L84.556 12.0043C84.424 12.3855 84.1696 12.7124 83.8324 12.9338C83.4952 13.1553 83.0942 13.259 82.6919 13.2287H78.0957L80.1973 8.38581H84.8849C85.7256 8.44064 85.8626 8.98889 85.4697 9.9392ZM116.528 0.68281L112.59 9.49146H118.21C118.594 9.49146 118.776 9.76559 118.621 10.122L108.798 31.8694C108.634 32.2167 108.825 32.4999 109.209 32.4999H119.215C119.599 32.4999 120.037 32.2167 120.193 31.8603L129.623 10.122C129.713 9.93911 129.85 9.78353 130.02 9.67115C130.191 9.55876 130.388 9.4936 130.591 9.48232H136.357L141.785 0.68281H116.528ZM33.5133 11.52L34.756 8.80614C37.2597 3.086 35.6058 0.627984 30.6898 0.691948H18.8566C13.9863 0.627984 9.92917 3.36926 7.68132 8.46805L4.02628 18.7935H0.572266L7.17875 27.7118L18.0982 18.7935H15.3204L18.5277 11.3464C19.0485 10.122 19.944 9.53715 20.9034 9.49146H22.7675C23.2061 9.50974 23.5076 9.6468 23.6813 9.83869L29.4745 4.96835L33.5133 11.52Z" fill="#191825" fill-opacity="0.5"/>
<path d="M6.93212 30.3347L2.07092 24.1759L1.81507 24.7242C-0.44192 29.8595 -0.0672783 32.418 4.80306 32.4911H16.4809C21.3147 32.418 25.5454 29.8595 27.8115 24.7242L31.2838 16.7653H34.3906L29.0908 7.83789L18.2628 16.7653H21.2325L19.0394 21.8367C18.5095 22.9149 17.7054 23.4997 16.8464 23.5363H15.293L6.93212 30.3347Z" fill="#191825" fill-opacity="0.5"/>
<path d="M172.497 0.500122C172.926 0.500122 173.292 0.655461 173.593 0.957002C173.895 1.25854 174.05 1.62405 174.05 2.05351C174.05 2.47384 173.895 2.83935 173.593 3.15003C173.292 3.46071 172.926 3.60691 172.497 3.60691C172.292 3.61005 172.09 3.57111 171.901 3.49251C171.712 3.41391 171.542 3.29733 171.4 3.15003C171.099 2.83935 170.943 2.47384 170.943 2.05351C170.943 1.63318 171.099 1.24941 171.4 0.957002C171.542 0.810133 171.713 0.693842 171.901 0.615274C172.09 0.536706 172.292 0.49752 172.497 0.500122ZM172.497 3.3145C172.664 3.31829 172.831 3.28783 172.987 3.22499C173.142 3.16214 173.283 3.06823 173.401 2.949C173.521 2.83132 173.615 2.69028 173.678 2.53467C173.741 2.37905 173.771 2.21216 173.767 2.04438C173.77 1.87812 173.739 1.71297 173.676 1.55902C173.613 1.40506 173.52 1.26551 173.401 1.14889C173.284 1.02922 173.143 0.935021 172.987 0.872144C172.831 0.809268 172.665 0.779057 172.497 0.783387C172.33 0.779772 172.165 0.810346 172.011 0.873218C171.857 0.936089 171.718 1.02992 171.601 1.14889C171.355 1.39561 171.236 1.69715 171.236 2.04438C171.236 2.39161 171.355 2.70228 171.601 2.949C171.848 3.19571 172.15 3.3145 172.497 3.3145ZM173.292 2.8759H172.926L172.469 2.21799H172.277V2.8759H171.948V1.20372H172.469C172.652 1.20372 172.798 1.24941 172.908 1.33164C173.018 1.42302 173.082 1.54181 173.082 1.69715C173.082 1.89818 172.972 2.05351 172.762 2.13575L173.292 2.8759ZM172.287 1.94386H172.46C172.67 1.94386 172.771 1.86162 172.771 1.70629C172.771 1.55095 172.68 1.47785 172.469 1.47785H172.287V1.94386Z" fill="#191825" fill-opacity="0.5"/>
</svg>
