<svg width="114" height="33" viewBox="0 0 114 33" fill="none" xmlns="http://www.w3.org/2000/svg">
<path d="M54.4212 25.5363H50.9062C50.884 25.5363 50.884 25.5363 50.8729 25.5252L47.8473 21.8322L44.8218 25.5252C44.8106 25.5363 44.7995 25.5363 44.7884 25.5363H41.9742C41.9519 25.5363 41.9408 25.5252 41.9297 25.5141C41.9297 25.5029 41.9297 25.4807 41.9408 25.4696L46.4013 19.9969L41.9964 14.5798C41.9853 14.5576 41.9853 14.5464 41.9853 14.5242C41.9964 14.5131 42.0076 14.502 42.0187 14.502H45.5337C45.5448 14.502 45.5559 14.5131 45.567 14.5242L48.2255 17.8167L50.9285 14.5242C50.9396 14.5131 50.9507 14.502 50.9619 14.502H53.8206C53.8317 14.502 53.8539 14.5131 53.865 14.5242C53.8762 14.5464 53.865 14.5576 53.8539 14.5798L49.6827 19.5964L54.4657 25.4696C54.4768 25.4807 54.4768 25.5029 54.4768 25.5141C54.4546 25.5363 54.4435 25.5363 54.4212 25.5363Z" fill="#191825" fill-opacity="0.5"/>
<path d="M73.4322 16.4374C71.875 16.4374 70.8182 17.3829 70.5068 19.018H75.8015V18.9068C75.8015 17.6054 74.8338 16.4374 73.4322 16.4374ZM78.5267 20.7088C78.5156 20.7199 78.5045 20.731 78.4933 20.731H70.4512C70.618 22.5998 71.8305 23.6676 73.7993 23.6676C75.0117 23.6676 76.302 23.256 78.1152 22.2883C78.1485 22.2661 78.1819 22.2994 78.1819 22.3328V24.8022C78.1819 24.8244 78.1708 24.8355 78.1596 24.8355C76.4689 25.5474 74.767 26.0369 73.4322 26.0369C69.9729 26.0369 67.459 23.5119 67.459 20.0414C67.459 16.5709 69.9729 14.0459 73.4322 14.0459C76.5913 14.0459 78.6157 16.1705 78.6157 19.0959C78.6157 19.5742 78.5378 20.6754 78.5267 20.7088Z" fill="#191825" fill-opacity="0.5"/>
<path d="M94.8553 12.2112C93.8653 12.2112 93.0645 11.4215 93.0645 10.4537C93.0645 9.45263 93.8653 8.64062 94.8553 8.64062C95.8453 8.64062 96.6462 9.45263 96.6462 10.4537C96.6462 11.4215 95.8453 12.2112 94.8553 12.2112ZM93.4093 25.537C93.3759 25.537 93.3648 25.5259 93.3648 25.4925V14.536C93.3648 14.5138 93.3759 14.4915 93.3982 14.4915H96.3013C96.3236 14.4915 96.3347 14.5138 96.3347 14.536V25.4925C96.3347 25.5259 96.3125 25.537 96.2902 25.537H93.4093Z" fill="#191825" fill-opacity="0.5"/>
<path d="M59.7388 23.8901C59.216 23.8901 58.6821 23.8122 58.0592 23.6565L58.0703 16.6265C58.7933 16.3929 59.4162 16.2928 60.0391 16.2928C62.0525 16.2928 63.3984 17.7722 63.3984 19.9858C63.3984 22.355 61.9635 23.8901 59.7388 23.8901ZM60.5286 14.0459C59.7054 14.0459 58.8823 14.1905 58.0147 14.4908H55.1226C55.1004 14.4908 55.0781 14.5131 55.0781 14.5353V32.4995C55.9457 32.3772 57.0136 32.0657 58.0592 31.3316V25.87C58.7711 25.9701 59.3606 26.0369 59.9279 26.0369C63.8878 26.0369 66.4462 23.6676 66.4462 19.9969C66.4462 16.493 64.0102 14.0459 60.5286 14.0459Z" fill="#191825" fill-opacity="0.5"/>
<path d="M88.1253 22.9781C87.2243 23.4564 86.4123 23.6788 85.6559 23.6788C83.865 23.6788 82.7861 22.4108 82.7861 20.2862C82.7861 17.8391 84.1543 16.2484 86.2788 16.2484C86.8683 16.2484 87.4356 16.393 88.1253 16.7045V22.9781ZM88.1253 8.69568V14.4242C87.2799 14.1795 86.5346 14.0683 85.7783 14.0683C82.33 14.0683 79.7383 16.66 79.7383 20.1082C79.7383 23.5342 82.0297 26.0259 85.1887 26.0259C86.2788 26.0259 87.3022 25.7478 88.5035 25.136V26.126C89.2932 25.9702 90.2054 25.6588 91.1063 25.0136V7.5166C90.2276 7.63896 89.182 7.93929 88.1253 8.69568Z" fill="#191825" fill-opacity="0.5"/>
<path d="M106.401 22.9559C105.522 23.4565 104.777 23.7012 104.109 23.7012C102.185 23.7012 101.039 22.4331 101.039 20.3086C101.039 17.8948 102.396 16.2708 104.41 16.2708C104.944 16.2708 105.6 16.4821 106.401 16.9048V22.9559ZM109.382 14.3576C109.382 14.2908 109.326 14.2352 109.259 14.2352H106.912C106.846 14.2352 106.779 14.2908 106.779 14.3576V14.758H106.723C105.644 14.2797 104.71 14.0684 103.809 14.0684C100.561 14.0684 98.0137 16.7602 98.0137 20.2084C98.0137 23.6901 100.294 26.026 103.687 26.026C104.588 26.026 105.756 25.9592 106.846 24.7134V26.1261C107.613 25.9592 108.525 25.6366 109.382 25.0137V14.3576Z" fill="#191825" fill-opacity="0.5"/>
<path d="M33.9439 22.8002H41.2296C41.1184 23.6122 40.8403 24.5688 40.2174 25.5365H32.6424C31.7192 25.5365 30.9517 24.8135 30.8627 23.9125C30.8627 23.9014 30.8516 23.8902 30.8516 23.868V9.49663C30.8516 9.4855 30.8627 9.47438 30.8627 9.46326C30.9517 8.55114 31.7192 7.82812 32.6424 7.82812H41.2185C41.1073 8.64013 40.8292 9.61898 40.1952 10.5867H33.9439V14.5021H40.1396C40.1618 14.5021 40.1841 14.5244 40.1841 14.5466V17.2607C40.1841 17.283 40.1618 17.3052 40.1396 17.3052H33.9439V22.8002Z" fill="#191825" fill-opacity="0.5"/>
<path d="M24.8233 25.7704C24.1002 25.7704 23.6553 25.2031 23.6553 24.5135C23.6553 23.7793 24.167 23.2565 24.8233 23.2565C25.4684 23.2565 25.9801 23.7682 25.9801 24.5135C25.9801 25.2587 25.4684 25.7704 24.8233 25.7704ZM24.8233 23.123C24.0891 23.123 23.4551 23.6792 23.4551 24.5135C23.4551 25.3032 24.0224 25.9039 24.8233 25.9039C25.5463 25.9039 26.1803 25.3477 26.1803 24.5135C26.1803 23.6792 25.5574 23.123 24.8233 23.123Z" fill="#191825" fill-opacity="0.5"/>
<path d="M24.5 24.4017V23.8901H24.8448C25.0228 23.8901 25.223 23.9123 25.223 24.1236C25.223 24.3795 25.0339 24.3906 24.8226 24.3906C24.8114 24.4017 24.5 24.4017 24.5 24.4017ZM25.4677 24.157C25.4677 23.8233 25.2675 23.6787 24.867 23.6787H24.2441V25.325H24.5111V24.6242H24.7669L25.1896 25.325H25.5011L25.045 24.6019C25.2897 24.5797 25.4677 24.4573 25.4677 24.157Z" fill="#191825" fill-opacity="0.5"/>
<path d="M111.784 16.3159C111.061 16.3159 110.616 15.7486 110.616 15.059C110.616 14.3248 111.128 13.802 111.784 13.802C112.429 13.802 112.941 14.3137 112.941 15.059C112.941 15.8042 112.429 16.3159 111.784 16.3159ZM111.784 13.6797C111.05 13.6797 110.416 14.2359 110.416 15.0701C110.416 15.8599 110.983 16.4605 111.784 16.4605C112.507 16.4605 113.141 15.9044 113.141 15.0701C113.141 14.2247 112.507 13.6797 111.784 13.6797Z" fill="#191825" fill-opacity="0.5"/>
<path d="M111.452 14.9472V14.4467H111.797C111.975 14.4467 112.175 14.4689 112.175 14.6803C112.175 14.9361 111.986 14.9472 111.774 14.9472H111.452ZM112.431 14.7137C112.431 14.38 112.23 14.2354 111.83 14.2354H111.207V15.8816H111.474V15.1808H111.73L112.153 15.8816H112.464L112.008 15.1586C112.242 15.1363 112.431 15.014 112.431 14.7137Z" fill="#191825" fill-opacity="0.5"/>
<path d="M15.423 10.5759L14.9002 9.08534L10.4064 3.08985L11.2073 2.88963L18.938 9.57476L23.4875 8.27333C24.0214 8.13985 24.6332 8.10648 25.0892 8.10648C23.6654 5.02531 21.0403 2.48919 17.5921 1.26562C10.7735 -1.17039 3.26522 2.4002 0.840332 9.22994C0.0839438 11.3434 -0.0829065 13.5236 0.228547 15.5925L11.1183 11.8106L15.423 10.5759Z" fill="#191825" fill-opacity="0.5"/>
<path d="M25.5787 9.28516C25.1783 9.54099 24.5887 9.88582 24.0103 10.0749L19.4498 11.3763L16.4131 21.1426L15.6233 21.3985L16.2685 13.9458L15.9125 12.3997L11.6412 13.6233L0.339844 16.2595C1.24084 20.5976 4.31088 24.3907 8.79359 25.9813C15.6233 28.4173 23.1205 24.8467 25.5565 18.017C26.6021 15.0915 26.5353 12.0215 25.5787 9.28516Z" fill="#191825" fill-opacity="0.5"/>
<path d="M15.9007 12.3894L16.2567 13.9355L15.6115 21.3882L16.4013 21.1323L19.4379 11.366L23.9985 10.0646C24.5769 9.87549 25.1665 9.54179 25.5669 9.27483C25.4223 8.87439 25.2666 8.48507 25.0886 8.09576C24.6214 8.09576 24.0208 8.118 23.4868 8.26261L18.9374 9.56404L11.2067 2.87891L10.4058 3.07913L14.8885 9.07461L15.4113 10.5651L11.1066 11.7998L0.216797 15.5818C0.250167 15.8042 0.29466 16.0378 0.339154 16.2603L11.6294 13.6018L15.9007 12.3894Z" fill="white"/>
</svg>
