<svg width="104" height="33" viewBox="0 0 104 33" fill="none" xmlns="http://www.w3.org/2000/svg">
<path d="M54.9899 8.54048C54.9899 9.69374 54.0606 10.6224 52.9074 10.6224C51.7541 10.6224 50.8255 9.69374 50.8255 8.54048C50.8255 7.38723 51.7224 6.4586 52.9074 6.4586C54.0933 6.4906 54.9899 7.41955 54.9899 8.54048ZM46.4051 12.7369V13.2495C46.4051 13.2495 45.4125 11.9676 43.2983 11.9676C39.8071 11.9676 37.084 14.6264 37.084 18.3099C37.084 21.9617 39.7751 24.6522 43.2983 24.6522C45.4445 24.6522 46.4051 23.3389 46.4051 23.3389V23.8832C46.4051 24.1395 46.5977 24.3312 46.8537 24.3312H49.4479V12.287H46.8537C46.5977 12.2879 46.4051 12.5126 46.4051 12.7369ZM46.4051 20.4561C45.9251 21.161 44.9638 21.7697 43.8109 21.7697C41.761 21.7697 40.1911 20.4884 40.1911 18.3099C40.1911 16.1317 41.761 14.8504 43.8109 14.8504C44.9322 14.8504 45.9571 15.4911 46.4051 16.1637V20.4561ZM51.3701 12.2879H54.4449V24.3322H51.3701V12.2879ZM97.3036 11.9673C95.1894 11.9673 94.1961 13.2492 94.1961 13.2492V6.4906H91.1213V24.3322H93.7161C93.9724 24.3322 94.1641 24.1078 94.1641 23.8835V23.3392C94.1641 23.3392 95.1574 24.6525 97.2709 24.6525C100.763 24.6525 103.485 21.9626 103.485 18.3108C103.485 14.6591 100.763 11.9673 97.3036 11.9673ZM96.791 21.7373C95.6054 21.7373 94.6768 21.1293 94.1961 20.4241V16.1317C94.6768 15.4911 95.7017 14.8184 96.791 14.8184C98.8408 14.8184 100.41 16.0997 100.41 18.2779C100.41 20.4561 98.8411 21.7373 96.791 21.7373ZM89.5201 17.1893V24.3642H86.4446V17.5413C86.4446 15.5557 85.804 14.7544 84.0754 14.7544C83.1468 14.7544 82.1855 15.2351 81.5759 15.94V24.3325H78.5017V12.2882H80.9353C81.1916 12.2882 81.3839 12.5126 81.3839 12.7369V13.2495C82.2808 12.3202 83.4658 11.9676 84.6507 11.9676C85.9963 11.9676 87.1175 12.3526 88.0145 13.1212C89.1031 14.0181 89.5201 15.1711 89.5201 17.1893ZM71.0372 11.9673C68.9237 11.9673 67.9304 13.2492 67.9304 13.2492V6.4906H64.8556V24.3322H67.4498C67.7061 24.3322 67.8984 24.1078 67.8984 23.8835V23.3392C67.8984 23.3392 68.8917 24.6525 71.0052 24.6525C74.497 24.6525 77.2195 21.9626 77.2195 18.3108C77.2515 14.6588 74.529 11.9673 71.0372 11.9673ZM70.5246 21.7373C69.3397 21.7373 68.411 21.1293 67.9304 20.4241V16.1317C68.411 15.4911 69.436 14.8184 70.5246 14.8184C72.5751 14.8184 74.1444 16.0997 74.1444 18.2779C74.1444 20.4561 72.5751 21.7373 70.5246 21.7373ZM62.1968 11.9673C63.1254 11.9673 63.606 12.1279 63.606 12.1279V14.9784C63.606 14.9784 61.0435 14.1135 59.4423 15.9397V24.3638H56.3668V12.2879H58.9616C59.218 12.2879 59.4096 12.5122 59.4096 12.7366V13.2492C59.9869 12.5762 61.2361 11.9673 62.1968 11.9673ZM30.2617 23.2429C30.1017 22.8586 29.9414 22.4423 29.7814 22.0897C29.5248 21.5133 29.2685 20.9684 29.0448 20.4561L29.0128 20.4241C26.8023 15.6191 24.4324 10.7507 21.9336 5.9463L21.8376 5.75365C21.5748 5.25525 21.3186 4.75336 21.0693 4.24809C20.7486 3.67114 20.4287 3.06315 19.916 2.4862C18.8911 1.20495 17.4175 0.5 15.8483 0.5C14.2464 0.5 12.8051 1.20495 11.7485 2.42189C11.2679 2.99819 10.9152 3.60683 10.5953 4.18377C10.3453 4.68872 10.0891 5.19061 9.82695 5.68934L9.73063 5.88197C7.26412 10.6864 4.86193 15.5551 2.65173 20.3598L2.61942 20.4234C2.39542 20.9367 2.13878 21.481 1.88247 22.057C1.72247 22.4096 1.56248 22.794 1.40248 23.2103C0.985848 24.3952 0.857524 25.5165 1.01816 26.67C1.37047 29.0726 2.97172 31.0898 5.18224 31.9874C6.01518 32.34 6.88012 32.5 7.77674 32.5C8.03306 32.5 8.35306 32.468 8.6097 32.4357C9.66695 32.3077 10.7559 31.9557 11.8131 31.3471C13.1264 30.6101 14.3757 29.5535 15.7849 28.0159C17.1942 29.5535 18.4754 30.6101 19.7567 31.3471C20.8142 31.9557 21.9029 32.3077 22.9598 32.4357C23.2161 32.4683 23.5367 32.5 23.7931 32.5C24.69 32.5 25.5866 32.34 26.3873 31.9874C28.6298 31.0898 30.199 29.0406 30.5516 26.67C30.806 25.5491 30.678 24.4285 30.2617 23.2429ZM15.8159 24.9085C14.0861 22.7303 12.9648 20.6804 12.5808 18.9512C12.4208 18.2142 12.3885 17.5736 12.4848 16.997C12.5485 16.4843 12.7411 16.0357 12.9974 15.6514C13.6061 14.7871 14.631 14.2421 15.8163 14.2421C17.0018 14.2421 18.0588 14.7548 18.6354 15.6514C18.8917 16.0357 19.0837 16.4846 19.1484 16.997C19.244 17.5739 19.212 18.2462 19.052 18.9512C18.6665 20.6484 17.5452 22.6986 15.8159 24.9085ZM28.5958 26.414C28.3718 28.0796 27.2506 29.5215 25.6813 30.1621C24.9127 30.4821 24.0795 30.5784 23.2472 30.4821C22.4465 30.3858 21.6453 30.1295 20.813 29.6495C19.6597 29.0082 18.5068 28.0159 17.1612 26.542C19.2751 23.9478 20.5563 21.577 21.037 19.4635C21.2613 18.4702 21.2936 17.5736 21.197 16.7403C21.0693 15.9397 20.7806 15.2027 20.3323 14.5621C19.3388 13.1202 17.6729 12.2879 15.8156 12.2879C13.9584 12.2879 12.2925 13.1529 11.2996 14.5621C10.8512 15.2027 10.5626 15.9397 10.4346 16.7403C10.3066 17.5736 10.3383 18.5022 10.5946 19.4635C11.0749 21.577 12.3882 23.9795 14.4701 26.574C13.1568 28.0476 11.9715 29.0409 10.8183 29.6815C9.98534 30.1621 9.18504 30.4184 8.38442 30.5141C7.5198 30.6104 6.68653 30.4821 5.94991 30.1941C4.38066 29.5535 3.2594 28.1116 3.03541 26.446C2.93941 25.6454 3.00309 24.8448 3.32372 23.9478C3.4194 23.6272 3.58003 23.3072 3.74003 22.9229C3.96434 22.4103 4.22002 21.8653 4.47666 21.321L4.50898 21.2573C6.71885 16.4843 9.08905 11.6156 11.5556 6.87523L11.6516 6.6826C11.9082 6.20261 12.1645 5.68998 12.4205 5.20935C12.6768 4.69672 12.9648 4.21609 13.3174 3.79945C13.9901 3.03147 14.8867 2.61452 15.8799 2.61452C16.8732 2.61452 17.7698 3.03147 18.4425 3.79945C18.7951 4.21705 19.0831 4.69768 19.3394 5.20935C19.596 5.68998 19.8523 6.20261 20.108 6.6826L20.2043 6.87523C22.6332 11.6353 24.9719 16.4409 27.2192 21.2893V21.3213C27.4759 21.8346 27.6999 22.4106 27.9562 22.9239C28.1162 23.3075 28.2765 23.6275 28.3725 23.9482C28.6282 24.7802 28.7242 25.5814 28.5958 26.414Z" fill="#191825" fill-opacity="0.5"/>
</svg>
