<svg width="189" height="33" viewBox="0 0 189 33" fill="none" xmlns="http://www.w3.org/2000/svg">
<mask id="mask0_166_1644" style="mask-type:luminance" maskUnits="userSpaceOnUse" x="0" y="0" width="189" height="33">
<path d="M188.746 0.5H0.142578V32.5H188.746V0.5Z" fill="white"/>
</mask>
<g mask="url(#mask0_166_1644)">
<mask id="mask1_166_1644" style="mask-type:luminance" maskUnits="userSpaceOnUse" x="0" y="0" width="189" height="33">
<path d="M188.746 0.5H0.142578V32.5H188.746V0.5Z" fill="white"/>
</mask>
<g mask="url(#mask1_166_1644)">
<path d="M74.0996 4.00337C74.0996 2.42308 75.3815 1.13379 76.9692 1.13379C78.5495 1.13379 79.8388 2.41571 79.8388 4.00337C79.7835 5.58366 78.45 6.81768 76.866 6.76243C75.3631 6.70717 74.1585 5.50262 74.0996 4.00337Z" fill="#191825" fill-opacity="0.5"/>
</g>
<mask id="mask2_166_1644" style="mask-type:luminance" maskUnits="userSpaceOnUse" x="0" y="0" width="189" height="33">
<path d="M188.746 0.5H0.142578V32.5H188.746V0.5Z" fill="white"/>
</mask>
<g mask="url(#mask2_166_1644)">
<path d="M119.324 23.1182C119.324 21.5268 120.606 20.2412 122.183 20.2412C123.77 20.2412 125.056 21.5268 125.056 23.1182C125.056 24.7058 123.77 25.9914 122.183 25.9914C120.606 25.9914 119.324 24.7021 119.324 23.1182Z" fill="#191825" fill-opacity="0.5"/>
</g>
<mask id="mask3_166_1644" style="mask-type:luminance" maskUnits="userSpaceOnUse" x="0" y="0" width="189" height="33">
<path d="M188.746 0.5H0.142578V32.5H188.746V0.5Z" fill="white"/>
</mask>
<g mask="url(#mask3_166_1644)">
<path d="M27.0708 21.8765C24.6064 21.8765 22.8861 19.9168 22.8861 17.1136C22.8861 14.314 24.6027 12.3543 27.0708 12.3543C29.5499 12.3543 31.2886 14.314 31.2886 17.1136C31.2849 19.961 29.5904 21.8765 27.0708 21.8765ZM27.0708 8.16963C21.851 8.16963 18.0605 11.9307 18.0605 17.1136C18.0605 22.2965 21.8547 26.0575 27.0708 26.0575C32.3163 26.0575 36.1179 22.2965 36.1179 17.1173C36.1179 11.9307 32.309 8.16963 27.0708 8.16963ZM68.5526 17.563C68.3721 17.213 68.14 16.8852 67.8711 16.5979L67.7127 16.4321L67.8784 16.2737C68.1179 16.0195 68.3647 15.7211 68.5968 15.3749L73.205 8.52326H67.6095L64.1469 13.883C63.9516 14.174 63.5575 14.3103 62.9644 14.3103H62.1724V4.17653C62.1724 2.15052 60.9126 1.87793 59.546 1.87793H57.2105L57.2142 25.7923H62.1688V18.6239H62.6329C63.1965 18.6239 63.5796 18.6902 63.7601 18.9959L66.4934 24.1567C67.2596 25.5565 68.0184 25.796 69.4477 25.796H73.2566L70.4238 21.1214L68.5526 17.563ZM92.6216 8.13279C90.0983 8.13279 88.4885 9.25262 87.5897 10.203L87.2914 10.5088L87.1845 10.0962C86.9193 9.07949 86.0279 8.52695 84.6833 8.52695H82.4621L82.4768 25.796H87.4019V17.8393C87.4019 17.0583 87.5013 16.3879 87.7076 15.769C88.2565 13.9051 89.7852 12.7411 91.6933 12.7411C93.2294 12.7411 93.8335 13.5515 93.8335 15.6512V23.1732C93.8335 24.9598 94.6587 25.7996 96.4526 25.7996H98.7918L98.7807 14.815C98.7807 10.4351 96.6479 8.13279 92.6216 8.13279ZM77.0323 8.52326H74.6969L74.7116 21.8765V25.7923H77.2018L77.2902 25.796L78.4542 25.7923H79.6072V25.7886H79.6183L79.6293 11.1497C79.622 9.38156 78.7784 8.52326 77.0323 8.52326ZM46.4064 21.8765C43.942 21.8765 42.2217 19.9168 42.2217 17.1136C42.2217 14.314 43.942 12.3543 46.4064 12.3543C48.8818 12.3543 50.6241 14.314 50.6241 17.1136C50.6205 19.961 48.926 21.8765 46.4064 21.8765ZM46.4064 8.16963C41.1829 8.16963 37.3887 11.9307 37.3887 17.1136C37.3887 22.2965 41.1829 26.0575 46.4064 26.0575C51.6408 26.0575 55.4534 22.2965 55.4534 17.1173C55.4534 11.9307 51.6445 8.16963 46.4064 8.16963Z" fill="#191825" fill-opacity="0.5"/>
</g>
</g>
<mask id="mask4_166_1644" style="mask-type:luminance" maskUnits="userSpaceOnUse" x="0" y="0" width="189" height="33">
<path d="M188.746 0.5H0.142578V32.5H188.746V0.5Z" fill="white"/>
</mask>
<g mask="url(#mask4_166_1644)">
<mask id="mask5_166_1644" style="mask-type:luminance" maskUnits="userSpaceOnUse" x="0" y="1" width="189" height="32">
<path d="M188.706 1.12988H0.142578V32.4595H188.706V1.12988Z" fill="white"/>
</mask>
<g mask="url(#mask5_166_1644)">
<mask id="mask6_166_1644" style="mask-type:luminance" maskUnits="userSpaceOnUse" x="0" y="0" width="189" height="33">
<path d="M188.746 0.5H0.142578V32.5H188.746V0.5Z" fill="white"/>
</mask>
<g mask="url(#mask6_166_1644)">
<path d="M151.936 21.8759C149.471 21.8759 147.751 19.9162 147.751 17.1129C147.751 14.3133 149.471 12.3536 151.936 12.3536C154.415 12.3536 156.153 14.3133 156.153 17.1129C156.153 19.9604 154.455 21.8759 151.936 21.8759ZM151.936 8.16895C146.712 8.16895 142.918 11.93 142.918 17.1129C142.918 22.2958 146.705 26.0568 151.936 26.0568C157.174 26.0568 160.983 22.2958 160.983 17.1166C160.983 11.93 157.17 8.16895 151.936 8.16895Z" fill="#191825" fill-opacity="0.5"/>
</g>
<mask id="mask7_166_1644" style="mask-type:luminance" maskUnits="userSpaceOnUse" x="0" y="0" width="189" height="33">
<path d="M188.746 0.5H0.142578V32.5H188.746V0.5Z" fill="white"/>
</mask>
<g mask="url(#mask7_166_1644)">
<path d="M109.156 21.1099C106.463 21.1099 105.509 18.7634 105.509 16.5642C105.509 15.5917 105.756 12.4348 108.906 12.4348C110.468 12.4348 112.549 12.8842 112.549 16.7226C112.545 20.351 110.7 21.1099 109.156 21.1099ZM115.102 8.47858C114.166 8.47858 113.448 8.85063 113.087 9.53211L112.954 9.79734L112.726 9.59473C111.93 8.90589 110.504 8.0918 108.195 8.0918C103.59 8.0918 100.492 11.5471 100.492 16.6968C100.492 21.8392 103.701 25.4308 108.291 25.4308C109.856 25.4308 111.097 25.0624 112.077 24.3183L112.453 24.0347V24.5136C112.453 26.8232 110.961 28.0941 108.257 28.0941C106.939 28.0941 105.745 27.7736 104.946 27.4826C103.903 27.1658 103.288 27.431 102.868 28.4735L102.474 29.4386L101.921 30.8495L102.264 31.03C103.995 31.9509 106.25 32.4961 108.283 32.4961C112.475 32.4961 117.371 30.3522 117.371 24.311L117.385 8.46753H115.102" fill="#191825" fill-opacity="0.5"/>
</g>
</g>
</g>
<mask id="mask8_166_1644" style="mask-type:luminance" maskUnits="userSpaceOnUse" x="0" y="0" width="189" height="33">
<path d="M188.746 0.5H0.142578V32.5H188.746V0.5Z" fill="white"/>
</mask>
<g mask="url(#mask8_166_1644)">
<mask id="mask9_166_1644" style="mask-type:luminance" maskUnits="userSpaceOnUse" x="0" y="0" width="189" height="33">
<path d="M188.746 0.5H0.142578V32.5H188.746V0.5Z" fill="white"/>
</mask>
<g mask="url(#mask9_166_1644)">
<path d="M8.73657 21.6734L4.72506 21.6697V16.881C4.72506 15.8532 5.12289 15.3265 5.99592 15.2012H8.7292C10.6779 15.2012 11.9377 16.4316 11.945 18.4207C11.945 20.4652 10.7147 21.6734 8.73657 21.6734ZM4.72506 8.75112V7.4913C4.72506 6.3862 5.1892 5.86312 6.21694 5.79682H8.26874C10.0259 5.79682 11.0794 6.85034 11.0794 8.61114C11.0794 9.95568 10.3574 11.5212 8.33137 11.5212H4.72506V8.75112ZM13.8495 13.5325L13.1275 13.1236L13.7574 12.5821C14.4978 11.9522 15.7245 10.5266 15.7245 8.06964C15.7245 4.30862 12.8107 1.88477 8.29821 1.88477H2.56643C1.22926 1.93265 0.157313 3.0267 0.142578 4.36387V25.6997H8.40504C13.4222 25.6997 16.6565 22.9701 16.6565 18.7412C16.6565 16.4721 15.6066 14.5234 13.8495 13.5325Z" fill="#191825" fill-opacity="0.5"/>
</g>
<mask id="mask10_166_1644" style="mask-type:luminance" maskUnits="userSpaceOnUse" x="0" y="0" width="189" height="33">
<path d="M188.746 0.5H0.142578V32.5H188.746V0.5Z" fill="white"/>
</mask>
<g mask="url(#mask10_166_1644)">
<path d="M182.974 8.18825C180.919 8.19194 178.97 9.13864 177.688 10.7521L177.331 11.2015L177.051 10.6968C176.138 9.03182 174.572 8.19194 172.384 8.19194C170.096 8.19194 168.56 9.46649 167.846 10.229L167.381 10.7337L167.201 10.0669C166.943 9.10917 166.088 8.58241 164.799 8.58241H162.729L162.707 25.7851H167.407V18.1894C167.407 17.5227 167.488 16.867 167.654 16.1781C168.103 14.3437 169.337 12.3692 171.411 12.5644C172.686 12.6897 173.312 13.6769 173.312 15.5814V25.7814H178.046V18.1857C178.046 17.3532 178.123 16.727 178.311 16.1081C178.687 14.3547 179.98 12.5571 181.98 12.5571C183.427 12.5571 183.965 13.3749 183.965 15.5814V23.2655C183.965 25.0005 184.739 25.7814 186.478 25.7814H188.688L188.691 14.8004C188.706 10.4095 186.772 8.18825 182.974 8.18825ZM140.196 19.8102C140.181 19.825 138.159 21.9615 135.496 21.9615C133.068 21.9615 130.618 20.4733 130.618 17.1506C130.618 14.281 132.519 12.2734 135.241 12.2734C136.126 12.2734 137.127 12.5902 137.286 13.1207L137.308 13.2091C137.514 13.9642 138.203 14.4836 138.98 14.48L141.555 14.4836V12.2292C141.555 9.25652 137.78 8.18457 135.234 8.18457C129.797 8.18457 125.855 11.9677 125.855 17.1801C125.855 22.3888 129.756 26.1719 135.135 26.1719C139.802 26.1719 142.336 23.1034 142.362 23.0776L142.495 22.9119L140.454 19.5266L140.196 19.8102Z" fill="#191825" fill-opacity="0.5"/>
</g>
</g>
</svg>
